HIERARCHY
ROOT Pelvis
{
	OFFSET 0.000000 0.000000 0.000000
	CHANNELS 6 Xposition Yposition Zposition Xrotation Yrotation Zrotation
	JOINT LeftUpLeg_virtual
	{
		OFFSET 0.000000 0.000000 0.000000
		CHANNELS 3 Xrotation Yrotation Zrotation
		JOINT LeftUpLeg
		{
			OFFSET 18.735201 -5.666702 -4.541200
			CHANNELS 3 Xrotation Yrotation Zrotation
			JOINT LeftLeg
			{
				OFFSET -0.021200 -31.938179 0.493100
				CHANNELS 3 Xrotation Yrotation Zrotation
				JOINT LeftFoot
				{
					OFFSET 0.021200 -31.938179 -4.336299
					CHANNELS 3 Xrotation Yrotation Zrotation
					JOINT LeftToeBase
					{
						OFFSET 0.943001 -26.722000 15.023500
						CHANNELS 3 Xrotation Yrotation Zrotation
						End Site
						{
							OFFSET 0 0 0
						}
					}
				}
			}
		}
	}
	JOINT RightUpLeg_virtual
	{
		OFFSET 0.000000 0.000000 0.000000
		CHANNELS 3 Xrotation Yrotation Zrotation
		JOINT RightUpLeg
		{
			OFFSET -18.735201 -5.666702 -4.541200
			CHANNELS 3 Xrotation Yrotation Zrotation
			JOINT RightLeg
			{
				OFFSET 0.018946 -31.938133 0.493100
				CHANNELS 3 Xrotation Yrotation Zrotation
				JOINT RightFoot
				{
					OFFSET -0.018946 -31.938126 -4.336299
					CHANNELS 3 Xrotation Yrotation Zrotation
					JOINT RightToeBase
					{
						OFFSET -0.943001 -26.722004 15.023500
						CHANNELS 3 Xrotation Yrotation Zrotation
						End Site
						{
							OFFSET 0 0 0
						}
					}
				}
			}
		}
	}
	JOINT Hips_virtual
	{
		OFFSET 0.000000 0.000000 0.000000
		CHANNELS 3 Xrotation Yrotation Zrotation
		JOINT Hips
		{
			OFFSET -0.000000 -0.000000 -0.000000
			CHANNELS 3 Xrotation Yrotation Zrotation
			JOINT Spine
			{
				OFFSET 0.000000 10.199997 -0.299500
				CHANNELS 3 Xrotation Yrotation Zrotation
				JOINT Spine1
				{
					OFFSET 0.000000 11.900002 -1.516600
					CHANNELS 3 Xrotation Yrotation Zrotation
					JOINT Spine2
					{
						OFFSET 0.000000 13.600006 -2.842500
						CHANNELS 3 Xrotation Yrotation Zrotation
						JOINT Neck_virtual
						{
							OFFSET 0.000000 0.000000 0.000000
							CHANNELS 3 Xrotation Yrotation Zrotation
							JOINT Neck
							{
								OFFSET 0.000000 9.624100 -2.890100
								CHANNELS 3 Xrotation Yrotation Zrotation
								JOINT Head
								{
									OFFSET 0.000000 14.068802 -1.351900
									CHANNELS 3 Xrotation Yrotation Zrotation
									End Site
									{
										OFFSET 0 0 0
									}
								}
							}
						}
						JOINT LeftShoulder_virtual
						{
							OFFSET 0.000000 0.000000 0.000000
							CHANNELS 3 Xrotation Yrotation Zrotation
							JOINT LeftShoulder
							{
								OFFSET 15.263000 10.923401 -0.547700
								CHANNELS 3 Xrotation Yrotation Zrotation
								JOINT LeftArm
								{
									OFFSET 25.438599 -2.830597 -13.032500
									CHANNELS 3 Xrotation Yrotation Zrotation
									JOINT LeftForeArm
									{
										OFFSET 29.960503 0.000000 0.000000
										CHANNELS 3 Xrotation Yrotation Zrotation
										JOINT LeftHand
										{
											OFFSET 27.849251 0.000000 0.000000
											CHANNELS 3 Xrotation Yrotation Zrotation
											End Site
											{
												OFFSET 0 0 0
											}
										}
									}
								}
							}
						}
						JOINT RightShoulder_virtual
						{
							OFFSET 0.000000 0.000000 0.000000
							CHANNELS 3 Xrotation Yrotation Zrotation
							JOINT RightShoulder
							{
								OFFSET -15.263000 10.923401 -0.547700
								CHANNELS 3 Xrotation Yrotation Zrotation
								JOINT RightArm
								{
									OFFSET -25.438599 -2.830597 -13.032500
									CHANNELS 3 Xrotation Yrotation Zrotation
									JOINT RightForeArm
									{
										OFFSET -29.960503 0.000000 0.000000
										CHANNELS 3 Xrotation Yrotation Zrotation
										JOINT RightHand
										{
											OFFSET -27.849251 0.000000 0.000000
											CHANNELS 3 Xrotation Yrotation Zrotation
											End Site
											{
												OFFSET 0 0 0
											}
										}
									}
								}
							}
						}
					}
				}
			}
		}
	}
}
MOTION
Frames: 6
Frame Time: 0.03333333
-3.155463 91.169540 14.760689 0.000000 0.000000 0.000000 -3.801912 -26.492928 -4.096403 -13.320909 21.816850 18.749011 25.774735 2.693280 -2.776969 -8.456302 13.011725 -8.038916 0.000000 0.000000 0.000000 -4.216242 -25.543261 -3.907906 -23.480327 -13.442498 -13.401466 24.127572 3.109311 0.486081 7.959723 4.633721 8.525918 0.000000 0.000000 0.000000 -3.764437 -25.087852 -3.690184 -0.730303 0.051432 -0.039977 4.958502 -0.371350 0.223658 0.243946 1.144809 -0.752247 0.000000 0.000000 0.000000 -4.778619 0.653207 -0.350110 0.677450 0.104263 1.625651 0.000000 0.000000 0.000000 -1.898886 -0.505881 -0.276221 -6.403288 0.816505 1.827111 45.455599 -55.387814 -29.288169 -8.867113 -35.057705 -3.569035 0.000000 0.000000 0.000000 -5.146393 1.001211 -0.004066 12.732174 11.155392 -20.018395 -50.036555 -22.577038 43.320335 163.109070 74.144927 -164.829253 0.000000 0.000000 0.000000 
-3.267492 91.214752 14.787151 0.000000 0.000000 0.000000 -3.821146 -26.010158 -4.120420 -13.381063 21.507390 18.922831 25.792944 2.626806 -2.596725 -8.220130 12.559619 -8.136675 0.000000 0.000000 0.000000 -4.230520 -25.048213 -3.928775 -23.323568 -13.492228 -13.116635 24.533167 2.990732 0.444380 7.592644 4.207737 7.894199 0.000000 0.000000 0.000000 -3.802111 -24.616063 -3.721973 -0.729314 0.057440 -0.040775 4.780728 0.037558 0.396562 0.250471 0.922825 -0.610920 0.000000 0.000000 0.000000 -4.704842 0.408407 -0.229270 0.756491 0.266249 1.586551 0.000000 0.000000 0.000000 -1.931131 -0.758648 -0.170740 -6.140545 0.388897 1.534397 44.745792 -55.809496 -29.479390 -8.059801 -34.568988 -3.184449 0.000000 0.000000 0.000000 -5.125441 0.724197 0.119632 13.186253 11.979928 -19.669085 -48.063881 -20.906594 43.639848 159.044807 75.089174 -160.404110 0.000000 0.000000 0.000000 
-3.390933 91.270233 14.827831 0.000000 0.000000 0.000000 -3.830344 -25.513063 -4.140287 -13.445658 21.179898 19.097728 25.793894 2.555712 -2.426175 -7.934086 12.121810 -8.206978 0.000000 0.000000 0.000000 -4.229727 -24.542471 -3.945638 -23.115288 -13.567865 -12.840570 24.850054 2.917838 0.430378 7.302790 3.834332 7.382582 0.000000 0.000000 0.000000 -3.830581 -24.133637 -3.752563 -0.728266 0.060284 -0.042638 4.600372 0.425811 0.584079 0.268504 0.693740 -0.489349 0.000000 0.000000 0.000000 -4.627917 0.158060 -0.129268 0.826748 0.428473 1.546992 0.000000 0.000000 0.000000 -1.954378 -1.015380 -0.077966 -5.877166 -0.010587 1.300221 43.888098 -56.279792 -29.786339 -7.254613 -33.987981 -2.794287 0.000000 0.000000 0.000000 -5.104369 0.440513 0.223781 13.603333 12.763983 -19.180315 -46.035663 -19.089399 43.950894 154.480410 76.086135 -155.461020 0.000000 0.000000 0.000000 
-3.523557 91.339874 14.871197 0.000000 0.000000 0.000000 -3.823648 -25.004108 -4.151314 -13.513865 20.836862 19.261429 25.755318 2.490308 -2.270960 -7.576901 11.715934 -8.231146 0.000000 0.000000 0.000000 -4.215255 -24.026442 -3.954506 -22.878258 -13.683069 -12.590413 25.115574 2.891167 0.436199 7.105274 3.504529 6.956208 0.000000 0.000000 0.000000 -3.840894 -23.636689 -3.773508 -0.727407 0.061371 -0.043771 4.406473 0.794065 0.782706 0.296263 0.463990 -0.389800 0.000000 0.000000 0.000000 -4.547513 -0.093310 -0.053985 0.885020 0.587285 1.508923 0.000000 0.000000 0.000000 -1.963196 -1.270342 0.002001 -5.619090 -0.383707 1.147684 42.852149 -56.797589 -30.255849 -6.456341 -33.320975 -2.402648 0.000000 0.000000 0.000000 -5.071891 0.156287 0.305627 13.977590 13.505345 -18.550674 -43.933208 -17.110918 44.189316 149.292321 77.129597 -149.868516 0.000000 0.000000 0.000000 
-3.662203 91.417999 14.910774 0.000000 0.000000 0.000000 -3.799397 -24.486971 -4.149599 -13.587816 20.471434 19.406430 25.677726 2.433367 -2.133082 -7.156782 11.355931 -8.194107 0.000000 0.000000 0.000000 -4.190115 -23.508671 -3.950886 -22.615675 -13.849042 -12.364327 25.345654 2.871401 0.451941 6.855008 3.161537 6.533924 0.000000 0.000000 0.000000 -3.828537 -23.130147 -3.777838 -0.726588 0.062515 -0.044008 4.192378 1.146192 0.990292 0.335187 0.239101 -0.311123 0.000000 0.000000 0.000000 -4.460785 -0.341180 -0.003312 0.928217 0.738573 1.473924 0.000000 0.000000 0.000000 -1.954098 -1.519505 0.071327 -5.373692 -0.736587 1.083268 41.641877 -57.357593 -30.895312 -5.669087 -32.582973 -2.014691 0.000000 0.000000 0.000000 -5.017304 -0.121731 0.367794 14.308215 14.198355 -17.795974 -41.751474 -14.950603 44.312543 143.234545 78.219258 -143.375069 0.000000 0.000000 0.000000 
-3.806044 91.500328 14.938438 0.000000 0.000000 0.000000 -3.757080 -23.978540 -4.131645 -13.651874 20.083907 19.524185 25.558822 2.381369 -2.011867 -6.715189 11.039881 -8.117080 0.000000 0.000000 0.000000 -4.152992 -23.000162 -3.930563 -22.350836 -14.061807 -12.162214 25.570516 2.837811 0.466283 6.419820 2.784369 6.085249 0.000000 0.000000 0.000000 -3.792953 -22.628697 -3.762071 -0.726184 0.064518 -0.044136 3.961286 1.483276 1.208241 0.388623 0.021555 -0.248213 0.000000 0.000000 0.000000 -4.366704 -0.581673 0.028704 0.956037 0.878628 1.444880 0.000000 0.000000 0.000000 -1.928907 -1.760032 0.131521 -5.146039 -1.078237 1.091184 40.307904 -57.938316 -31.662640 -4.904423 -31.788732 -1.641963 0.000000 0.000000 0.000000 -4.938103 -0.388261 0.414835 14.600387 14.842242 -16.953766 -39.516599 -12.588782 44.324383 135.844936 79.337271 -135.513508 0.000000 0.000000 0.000000 
